<?xml version="1.0" encoding="utf-8"?>
<svg xmlns="http://www.w3.org/2000/svg" viewBox="-70.49446786805329 -12.100000000000001 140.9889357361066 90.2" fill="none" stroke="black" stroke-width="0.1" width="150mm" height="100mm">
  <path d="M 0 0 L 5.196 -3 L 5.196 1 L 0 4 L -8.66 -1 L -3.464 -4 L -5.196 -5 L -64.086 29 L -64.086 37 L 0 74 L 0 66 L 1.732 65 L -19.053 53 L -10.392 48 L -6.928 50 L -12.124 53 L -12.124 57" stroke="black" style="display: inline;"/>
  <path d="M -12.124 53 L 0 60 L 6.928 56 L 6.928 60 L 19.053 53 L 13.856 50 L 13.856 56" stroke="black" style="display: inline;"/>
  <path d="M 12.124 57 L 12.124 53 L 10.392 54 L 5.196 51 L 5.196 55 L 6.928 56" stroke="black" style="display: inline;"/>
  <path d="M 5.196 55 L 0 58 L -8.66 53 L -3.464 50 L -3.464 44 L -5.196 43 L -20.785 52 L -45.033 38 L -41.569 36 L -25.981 45 L -24.249 44 L -24.249 50" stroke="black" style="display: inline;"/>
  <path d="M -25.981 49 L -25.981 45" stroke="black" style="display: inline;"/>
  <path d="M -24.249 44 L -29.445 41 L -20.785 36 L -15.588 39 L -13.856 38 L -20.785 34 L -20.785 30 L -31.177 36 L -31.177 40 L -41.569 34 L -46.765 37 L -60.622 29 L -57.158 27 L -57.158 31" stroke="black" style="display: inline;"/>
  <path d="M -57.158 27 L -51.962 30 L -50.229 29 L -55.426 26 L -36.373 15 L -25.981 21 L -20.785 18 L -20.785 22 L -25.981 25 L -25.981 21" stroke="black" style="display: inline;"/>
  <path d="M -20.785 22 L -15.588 25 L -15.588 21 L -8.66 17 L -15.588 13 L -17.321 14 L -12.124 17 L -15.588 19 L -20.785 16 L -25.981 19 L -25.981 15 L -15.588 9 L -15.588 13" stroke="black" style="display: inline;"/>
  <path d="M -17.321 14 L -17.321 18" stroke="black" style="display: inline;"/>
  <path d="M -20.785 18 L -15.588 21" stroke="black" style="display: inline;"/>
  <path d="M -15.588 25 L -10.392 22 L -5.196 25 L -1.732 23 L -6.928 20 L -1.732 17 L -15.588 9" stroke="black" style="display: inline;"/>
  <path d="M -25.981 15 L -27.713 14 L -27.713 18 L -34.641 14 L -20.785 6 L -20.785 10 L -17.321 8 L -20.785 6" stroke="black" style="display: inline;"/>
  <path d="M -20.785 10 L -27.713 14" stroke="black" style="display: inline;"/>
  <path d="M -27.713 18 L -25.981 19" stroke="black" style="display: inline;"/>
  <path d="M -25.981 25 L -36.373 19 L -36.373 15" stroke="black" style="display: inline;"/>
  <path d="M -36.373 19 L -38.105 20 L -38.105 24 L -34.641 26 L -34.641 32 L -31.177 34 L -20.785 28 L -20.785 24 L -31.177 30 L -32.909 29 L -27.713 26 L -38.105 20" stroke="black" style="display: inline;"/>
  <path d="M -38.105 24 L -41.569 22 L -48.497 26 L -48.497 36" stroke="black" style="display: inline;"/>
  <path d="M -50.229 35 L -50.229 29" stroke="black" style="display: inline;"/>
  <path d="M -51.962 30 L -51.962 34" stroke="black" style="display: inline;"/>
  <path d="M -50.229 31 L -48.497 30" stroke="black" style="display: inline;"/>
  <path d="M -48.497 26 L -46.765 27 L -46.765 31 L -48.497 32 L -46.765 33 L -41.569 30 L -31.177 36" stroke="black" style="display: inline;"/>
  <path d="M -31.177 34 L -31.177 30" stroke="black" style="display: inline;"/>
  <path d="M -32.909 29 L -32.909 33" stroke="black" style="display: inline;"/>
  <path d="M -34.641 32 L -39.837 29 L -34.641 26" stroke="black" style="display: inline;"/>
  <path d="M -34.641 30 L -32.909 31" stroke="black" style="display: inline;"/>
  <path d="M -41.569 30 L -41.569 34" stroke="black" style="display: inline;"/>
  <path d="M -41.569 36 L -41.569 40" stroke="black" style="display: inline;"/>
  <path d="M -46.765 37 L -46.765 33" stroke="black" style="display: inline;"/>
  <path d="M -46.765 31 L -38.105 26 L -41.569 24 L -46.765 27" stroke="black" style="display: inline;"/>
  <path d="M -41.569 28 L -41.569 24" stroke="black" style="display: inline;"/>
  <path d="M -20.785 24 L -15.588 27 L -15.588 31 L -10.392 28 L -10.392 24 L -5.196 27 L 1.732 23 L 1.732 27 L -5.196 31 L -10.392 28" stroke="black" style="display: inline;"/>
  <path d="M -5.196 27 L -5.196 31" stroke="black" style="display: inline;"/>
  <path d="M 1.732 27 L 8.66 23 L 3.464 20 L 3.464 26" stroke="black" style="display: inline;"/>
  <path d="M 3.464 22 L 1.732 21 L 1.732 17 L -3.464 20 L 1.732 23 L 1.732 21" stroke="black" style="display: inline;"/>
  <path d="M 3.464 20 L 8.66 17 L -12.124 5 L -10.392 4 L -10.392 0 L -19.053 5 L 1.732 17" stroke="black" style="display: inline;"/>
  <path d="M -6.928 20 L -6.928 24" stroke="black" style="display: inline;"/>
  <path d="M -8.66 23 L -8.66 17" stroke="black" style="display: inline;"/>
  <path d="M -8.66 21 L -6.928 22" stroke="black" style="display: inline;"/>
  <path d="M -10.392 24 L -15.588 27" stroke="black" style="display: inline;"/>
  <path d="M -20.785 28 L -15.588 31" stroke="black" style="display: inline;"/>
  <path d="M -20.785 30 L -6.928 38 L -15.588 43 L -20.785 40 L -20.785 36" stroke="black" style="display: inline;"/>
  <path d="M -20.785 34 L -31.177 40" stroke="black" style="display: inline;"/>
  <path d="M -20.785 40 L -22.517 41 L -22.517 51" stroke="black" style="display: inline;"/>
  <path d="M -20.785 52 L -20.785 48 L -5.196 39 L 3.464 44 L -1.732 47 L -1.732 57" stroke="black" style="display: inline;"/>
  <path d="M -3.464 56 L -3.464 50 L -8.66 47 L -3.464 44" stroke="black" style="display: inline;"/>
  <path d="M -5.196 43 L -5.196 39" stroke="black" style="display: inline;"/>
  <path d="M -13.856 38 L -13.856 42" stroke="black" style="display: inline;"/>
  <path d="M -15.588 43 L -15.588 39" stroke="black" style="display: inline;"/>
  <path d="M -22.517 41 L -17.321 44 L -22.517 47 L -20.785 48" stroke="black" style="display: inline;"/>
  <path d="M -24.249 46 L -22.517 45" stroke="black" style="display: inline;"/>
  <path d="M -10.392 48 L -10.392 52" stroke="black" style="display: inline;"/>
  <path d="M -3.464 48 L -1.732 49" stroke="black" style="display: inline;"/>
  <path d="M -1.732 47 L 3.464 50 L -1.732 53 L 0 54 L 5.196 51" stroke="black" style="display: inline;"/>
  <path d="M 10.392 54 L 10.392 58" stroke="black" style="display: inline;"/>
  <path d="M 6.928 60 L 3.464 62 L 3.464 70 L 5.196 71 L 64.086 37 L 64.086 29 L 5.196 63 L 5.196 71" stroke="black" style="display: inline;"/>
  <path d="M 0 74 L 1.732 73 L 1.732 65" stroke="black" style="display: inline;"/>
  <path d="M 0 66 L -64.086 29" stroke="black" style="display: inline;"/>
  <path d="M -12.124 9 L -12.124 5" stroke="black" style="display: inline;"/>
  <path d="M -10.392 4 L 0 10 L 13.856 2 L 5.196 -3" stroke="black" style="display: inline;"/>
  <path d="M 5.196 1 L 6.928 2 L 6.928 6" stroke="black" style="display: inline;"/>
  <path d="M 6.928 2 L 0 6 L -10.392 0" stroke="black" style="display: inline;"/>
  <path d="M -3.464 2 L -3.464 -4" stroke="black" style="display: inline;"/>
  <path d="M -1.732 3 L -1.732 -7 L 3.464 -4 L -1.732 -1 L 0 0 L 0 4" stroke="black" style="display: inline;"/>
  <path d="M 0 6 L 0 10" stroke="black" style="display: inline;"/>
  <path d="M -1.732 -7 L 0 -8 L 64.086 29" stroke="black" style="display: inline;"/>
  <path d="M 13.856 50 L 15.588 49 L 20.785 52 L 20.785 48 L 32.909 41 L 31.177 40 L 25.981 43 L 15.588 37 L 8.66 41 L 8.66 47 L 15.588 43 L 15.588 39 L 10.392 42 L 10.392 46" stroke="black" style="display: inline;"/>
  <path d="M 8.66 45 L 6.928 46 L 6.928 44 L -3.464 38 L 1.732 35 L 1.732 41" stroke="black" style="display: inline;"/>
  <path d="M 3.464 42 L 3.464 32 L 8.66 35 L 3.464 38 L 5.196 39 L 15.588 33 L 15.588 37" stroke="black" style="display: inline;"/>
  <path d="M 15.588 39 L 24.249 44 L 20.785 46 L 15.588 43" stroke="black" style="display: inline;"/>
  <path d="M 10.392 42 L 8.66 41" stroke="black" style="display: inline;"/>
  <path d="M 5.196 43 L 5.196 39" stroke="black" style="display: inline;"/>
  <path d="M 1.732 37 L 3.464 36" stroke="black" style="display: inline;"/>
  <path d="M 1.732 35 L 0 34 L -5.196 37 L -5.196 33 L 10.392 24 L 25.981 33 L 36.373 27 L 36.373 31 L 38.105 32 L 32.909 35 L 41.569 40 L 55.426 32 L 45.033 26 L 46.765 25 L 57.158 31 L 60.622 29 L 36.373 15 L 27.713 20 L 32.909 23 L 25.981 27 L 25.981 31 L 17.321 26 L 22.517 23 L 15.588 19 L 13.856 20 L 13.856 24 L 15.588 25 L 19.053 23 L 13.856 20" stroke="black" style="display: inline;"/>
  <path d="M 19.053 21 L 19.053 17 L 20.785 16 L 25.981 19 L 34.641 14 L 20.785 6 L 20.785 10 L 27.713 14 L 27.713 18" stroke="black" style="display: inline;"/>
  <path d="M 25.981 19 L 25.981 15 L 20.785 12 L 6.928 20 L 13.856 24" stroke="black" style="display: inline;"/>
  <path d="M 10.392 24 L 10.392 28 L 3.464 32" stroke="black" style="display: inline;"/>
  <path d="M -5.196 33 L -10.392 30 L -13.856 32 L -5.196 37" stroke="black" style="display: inline;"/>
  <path d="M -10.392 34 L -10.392 30" stroke="black" style="display: inline;"/>
  <path d="M 10.392 28 L 12.124 29 L 12.124 33 L 15.588 31 L 25.981 37 L 25.981 33" stroke="black" style="display: inline;"/>
  <path d="M 25.981 31 L 39.837 23 L 34.641 20 L 36.373 19 L 36.373 15" stroke="black" style="display: inline;"/>
  <path d="M 36.373 19 L 43.301 23 L 43.301 29 L 38.105 26 L 43.301 23" stroke="black" style="display: inline;"/>
  <path d="M 45.033 26 L 45.033 30 L 48.497 32 L 41.569 36 L 39.837 35 L 45.033 32 L 36.373 27" stroke="black" style="display: inline;"/>
  <path d="M 34.641 26 L 34.641 20" stroke="black" style="display: inline;"/>
  <path d="M 32.909 23 L 32.909 27" stroke="black" style="display: inline;"/>
  <path d="M 32.909 25 L 34.641 24" stroke="black" style="display: inline;"/>
  <path d="M 25.981 27 L 24.249 26 L 24.249 30" stroke="black" style="display: inline;"/>
  <path d="M 22.517 29 L 22.517 23" stroke="black" style="display: inline;"/>
  <path d="M 24.249 26 L 29.445 23 L 19.053 17" stroke="black" style="display: inline;"/>
  <path d="M 20.785 16 L 20.785 12" stroke="black" style="display: inline;"/>
  <path d="M 20.785 10 L 10.392 16 L 10.392 12 L 8.66 11 L 19.053 5 L 15.588 3 L 1.732 11 L 10.392 16" stroke="black" style="display: inline;"/>
  <path d="M 8.66 15 L 8.66 11" stroke="black" style="display: inline;"/>
  <path d="M 10.392 12 L 20.785 6" stroke="black" style="display: inline;"/>
  <path d="M 15.588 7 L 15.588 3" stroke="black" style="display: inline;"/>
  <path d="M 27.713 14 L 25.981 15" stroke="black" style="display: inline;"/>
  <path d="M 22.517 27 L 24.249 28" stroke="black" style="display: inline;"/>
  <path d="M 15.588 33 L 25.981 39 L 31.177 36 L 31.177 40" stroke="black" style="display: inline;"/>
  <path d="M 32.909 41 L 32.909 45 L 20.785 52" stroke="black" style="display: inline;"/>
  <path d="M 20.785 48 L 15.588 45 L 15.588 49" stroke="black" style="display: inline;"/>
  <path d="M 15.588 45 L 6.928 50 L 12.124 53" stroke="black" style="display: inline;"/>
  <path d="M 13.856 54 L 12.124 55" stroke="black" style="display: inline;"/>
  <path d="M 0 54 L 0 58" stroke="black" style="display: inline;"/>
  <path d="M 0 60 L 0 64" stroke="black" style="display: inline;"/>
  <path d="M 3.464 66 L 1.732 67" stroke="black" style="display: inline;"/>
  <path d="M 5.196 63 L 3.464 62" stroke="black" style="display: inline;"/>
  <path d="M 8.66 47 L 5.196 49 L 1.732 47 L 6.928 44" stroke="black" style="display: inline;"/>
  <path d="M 6.928 46 L 6.928 48" stroke="black" style="display: inline;"/>
  <path d="M 25.981 43 L 25.981 39" stroke="black" style="display: inline;"/>
  <path d="M 25.981 37 L 36.373 31" stroke="black" style="display: inline;"/>
  <path d="M 38.105 32 L 38.105 38" stroke="black" style="display: inline;"/>
  <path d="M 39.837 39 L 39.837 35" stroke="black" style="display: inline;"/>
  <path d="M 38.105 36 L 39.837 37" stroke="black" style="display: inline;"/>
  <path d="M 41.569 36 L 41.569 40" stroke="black" style="display: inline;"/>
  <path d="M 48.497 36 L 48.497 32" stroke="black" style="display: inline;"/>
  <path d="M 45.033 30 L 43.301 29" stroke="black" style="display: inline;"/>
  <path d="M 45.033 28 L 43.301 27" stroke="black" style="display: inline;"/>
  <path d="M 31.177 36 L 39.837 41 L 32.909 45" stroke="black" style="display: inline;"/>
  <path d="M 12.124 33 L 10.392 34 L 6.928 32 L 12.124 29" stroke="black" style="display: inline;"/>
</svg>